<svg class="svg-icon" style="width: 1em; height: 1em;vertical-align: middle;fill: currentColor;overflow: hidden;" viewBox="0 0 1024 1024" version="1.1" xmlns="http://www.w3.org/2000/svg"><path d="M938.56 452L555.84 81.92a62.72 62.72 0 0 0-87.68 0L85.44 452A65.92 65.92 0 0 0 128 565.44v328.8A64.8 64.8 0 0 0 192 960h640a64.8 64.8 0 0 0 64-65.76V565.44a65.92 65.92 0 0 0 42.56-113.44z m-29.12 53.76a15.04 15.04 0 0 1-14.88 10.4H872a24.64 24.64 0 0 0-17.12 7.36A24.16 24.16 0 0 0 848 540.8v304a64.8 64.8 0 0 1-64 65.76H240a64.8 64.8 0 0 1-64-65.76v-304a24.16 24.16 0 0 0-6.88-17.28 24.64 24.64 0 0 0-17.12-7.36H129.44a15.04 15.04 0 0 1-14.88-10.4 16 16 0 0 1 3.84-18.08L500.96 117.76a16 16 0 0 1 22.08 0L905.6 487.68a16 16 0 0 1 3.84 18.08z" fill="" /><path d="M520 752A200 200 0 1 1 720 552 200 200 0 0 1 520 752z m0-32A168 168 0 1 0 352 552 168 168 0 0 0 520 720z" fill="#0070FF" /><path d="M651.36 667.36a16 16 0 0 1 22.56 0l124.48 124.48a16 16 0 0 1 0 22.56 16 16 0 0 1-22.56 0l-124.48-124.48a16 16 0 0 1 0-22.56z" fill="#0070FF" /><path d="M496 640a16 16 0 1 0 16-16 16 16 0 0 0-16 16zM544 456.8v3.68L528 592h-32l-16-131.68v-3.68A28.96 28.96 0 0 1 512 432a28.96 28.96 0 0 1 32 24.8z" fill="#0070FF" /></svg>