<svg width="36" height="36" viewBox="0 0 36 36" fill="none" xmlns="http://www.w3.org/2000/svg">
<path d="M33.6964 25.8163L32.0257 15.4467C31.9797 15.0635 31.8954 14.6803 31.7804 14.3048C30.7917 11.2161 27.4731 9.45336 24.3615 10.3654C23.3038 10.6796 22.3918 11.2544 21.6867 11.9979H14.3138C13.6087 11.2544 12.7043 10.6796 11.639 10.3654C8.52736 9.45336 5.20878 11.2161 4.2201 14.3048C4.09747 14.688 4.02083 15.0712 3.97485 15.4467L2.30406 25.8163C1.9745 27.855 3.17778 29.886 5.20111 30.5528C7.22445 31.2196 9.40107 30.2999 10.3438 28.4681L13.1105 23.1109C13.2715 22.8043 13.5857 22.6127 13.9306 22.6127H22.0623C22.4071 22.6127 22.729 22.8043 22.8823 23.1109L25.6491 28.4681C26.5918 30.2999 28.7761 31.2196 30.7917 30.5528C32.8074 29.886 34.026 27.855 33.6964 25.8163Z" fill="#F38141"/>
<path fill-rule="evenodd" clip-rule="evenodd" d="M18 22.6127H22.062C22.4069 22.6127 22.7288 22.8043 22.8821 23.1109L25.6488 28.4681C26.5915 30.2999 28.7758 31.2196 30.7915 30.5528C32.8072 29.886 34.0258 27.855 33.6962 25.8163L32.0254 15.4467C31.9794 15.0635 31.8951 14.6803 31.7802 14.3048C30.7915 11.2161 27.4729 9.45336 24.3613 10.3654C23.3036 10.6796 22.3916 11.2544 21.6865 11.9979H18V22.6127Z" fill="#DB7034"/>
<path fill-rule="evenodd" clip-rule="evenodd" d="M22.9703 3.4989C23.0031 3.22471 22.7761 3 22.5 3C22.2239 3 22.004 3.22525 21.961 3.49803C21.7877 4.5972 21.0487 5.54202 19.9931 5.96424L19.8143 6.03576C18.1146 6.71566 17 8.3619 17 10.1926V10.8729H14.7733C13.9949 10.1596 13.0451 9.60725 11.9574 9.28639L11.9555 9.28585C8.25753 8.20196 4.32337 10.2922 3.14873 13.9618L3.1487 13.9619C3.00365 14.4152 2.91438 14.8613 2.86097 15.2881L1.19355 25.6368L1.19346 25.6374C0.776404 28.2191 2.29821 30.7807 4.84907 31.6213C7.39956 32.4618 10.1486 31.3054 11.3439 28.9835L11.3441 28.983L14.053 23.7377H21.9399L24.6488 28.983L24.6491 28.9835C25.8444 31.3054 28.6017 32.4623 31.1451 31.6209C33.6822 30.7816 35.2254 28.2242 34.8071 25.6368L33.1399 15.2892C33.0846 14.8413 32.9863 14.4006 32.8562 13.9755L32.8563 13.9755L32.8519 13.9618C31.6773 10.2922 27.7431 8.20196 24.0451 9.28584L24.0412 9.28702C22.9629 9.60737 22.0087 10.1586 21.2278 10.8729H18V10.1926C18 8.77081 18.8656 7.49227 20.1857 6.96424L20.3645 6.89272C21.8001 6.31848 22.7899 5.00815 22.9703 3.4989ZM32.0257 15.4468C31.9797 15.0636 31.8954 14.6803 31.7805 14.3048C30.7918 11.2162 27.4732 9.4534 24.3616 10.3654C23.3039 10.6797 22.3919 11.2545 21.6868 11.9979H14.3139C13.6088 11.2545 12.7044 10.6797 11.6391 10.3654C8.52743 9.4534 5.20885 11.2162 4.22017 14.3048C4.09755 14.688 4.02091 15.0712 3.97492 15.4468L2.30413 25.8164C1.97458 27.855 3.17785 29.886 5.20119 30.5528C7.22452 31.2196 9.40114 30.2999 10.3438 28.4682L13.1106 23.1109C13.2715 22.8044 13.5858 22.6127 13.9307 22.6127H22.0623C22.4072 22.6127 22.7291 22.8044 22.8824 23.1109L25.6492 28.4682C26.5918 30.2999 28.7761 31.2196 30.7918 30.5528C32.8075 29.886 34.0261 27.855 33.6965 25.8164L32.0257 15.4468ZM9.50006 13C9.22392 13 9.00006 13.2239 9.00006 13.5V15H7.50006C7.22392 15 7.00006 15.2239 7.00006 15.5V16.5C7.00006 16.7761 7.22392 17 7.50006 17H9.00006V18.5C9.00006 18.7761 9.22392 19 9.50006 19H10.5001C10.7762 19 11.0001 18.7761 11.0001 18.5V17H12.5001C12.7762 17 13.0001 16.7761 13.0001 16.5V15.5C13.0001 15.2239 12.7762 15 12.5001 15H11.0001V13.5C11.0001 13.2239 10.7762 13 10.5001 13H9.50006ZM27 14C27 14.5523 26.5523 15 26 15C25.4477 15 25 14.5523 25 14C25 13.4477 25.4477 13 26 13C26.5523 13 27 13.4477 27 14ZM27 18C27 18.5523 26.5523 19 26 19C25.4477 19 25 18.5523 25 18C25 17.4477 25.4477 17 26 17C26.5523 17 27 17.4477 27 18ZM24 17C24.5523 17 25 16.5523 25 16C25 15.4477 24.5523 15 24 15C23.4477 15 23 15.4477 23 16C23 16.5523 23.4477 17 24 17ZM29 16C29 16.5523 28.5523 17 28 17C27.4477 17 27 16.5523 27 16C27 15.4477 27.4477 15 28 15C28.5523 15 29 15.4477 29 16Z" fill="black"/>
</svg>
