<svg version="1.1" id="Layer_1" xmlns="http://www.w3.org/2000/svg" xmlns:xlink="http://www.w3.org/1999/xlink" x="0px" y="0px"
	 width="100%" viewBox="0 0 262 262" enable-background="new 0 0 262 262" xml:space="preserve">
<path fill="#FEFEFE" opacity="1.000000" stroke="none" 
	d="
M152.000000,263.000000 
	C101.333344,263.000000 51.166691,263.000000 1.000027,263.000000 
	C1.000018,175.666702 1.000018,88.333397 1.000009,1.000074 
	C88.333282,1.000049 175.666565,1.000049 262.999878,1.000025 
	C262.999939,88.333260 262.999939,175.666519 262.999969,262.999878 
	C226.166672,263.000000 189.333328,263.000000 152.000000,263.000000 
M216.781204,240.963928 
	C236.833878,243.820084 248.313690,243.274933 253.129547,238.959625 
	C252.289124,238.824265 251.712982,238.615921 251.156235,238.658890 
	C239.975479,239.521545 229.426575,236.907181 220.231766,230.887466 
	C211.513290,225.179596 202.778122,218.992691 195.600677,211.526108 
	C169.758362,184.642761 144.570312,157.130463 119.156738,129.835617 
	C119.009705,129.677719 119.170128,129.233536 119.203606,128.616928 
	C133.475800,128.012985 143.363068,120.311905 150.242447,108.373817 
	C162.121918,87.758850 160.216476,51.526295 124.722267,43.477043 
	C120.061584,42.420113 115.150604,42.126453 110.350403,42.085636 
	C92.032341,41.929867 73.712158,42.016087 55.392792,42.033394 
	C53.901237,42.034801 52.409840,42.198635 50.918369,42.286995 
	C51.515499,43.676846 52.135052,44.091160 52.791153,44.160709 
	C63.648537,45.311611 68.383186,50.484379 68.502380,61.435543 
	C68.540443,64.932419 68.503860,68.430115 67.626366,71.928581 
	C52.956959,71.388199 38.287552,70.847809 23.637108,70.308128 
	C23.637108,77.654282 23.637108,86.074974 23.637108,94.495674 
	C25.042183,92.440407 25.351740,90.258125 25.848642,88.119377 
	C27.146811,82.531830 31.048826,78.928848 36.647190,78.856850 
	C47.264824,78.720306 57.886925,78.931274 68.522614,79.935944 
	C68.524681,99.906998 68.526756,119.878052 68.129280,140.521454 
	C67.234413,142.456436 66.542030,144.519211 65.413918,146.307022 
	C51.201393,168.830917 36.914391,191.307831 22.689974,213.824249 
	C21.620327,215.517426 20.882399,217.420135 19.848562,219.512192 
	C23.107483,219.959915 25.698889,219.898727 27.988655,220.699783 
	C40.680511,225.139832 53.410950,229.504974 65.919868,234.425339 
	C94.076843,245.500809 121.832687,257.782318 152.506439,260.498871 
	C175.316391,262.519012 196.337540,258.835419 213.407303,241.996063 
	C214.056595,241.355530 215.107773,241.122406 216.781204,240.963928 
M113.230522,27.219576 
	C119.205856,26.258228 123.175842,22.492088 123.929764,17.069719 
	C124.732040,11.299541 121.711670,5.610533 116.727028,3.503033 
	C111.801407,1.420488 104.918137,2.903784 101.660263,6.956037 
	C98.461243,10.935076 97.981178,15.493919 99.941956,20.104753 
	C102.231575,25.488897 106.536041,27.797174 113.230522,27.219576 
M45.485020,143.949539 
	C40.479027,146.695480 38.780499,150.113312 40.334469,154.313629 
	C41.830101,158.356262 46.532990,160.504745 51.085232,158.997009 
	C55.504295,157.533386 56.497108,154.008698 55.982540,149.842133 
	C55.449867,145.528946 52.335526,143.651871 45.485020,143.949539 
z"/>
<path fill="#AE9756" opacity="1.000000" stroke="none" 
	d="
M68.507172,78.997887 
	C57.886925,78.931274 47.264824,78.720306 36.647190,78.856850 
	C31.048826,78.928848 27.146811,82.531830 25.848642,88.119377 
	C25.351740,90.258125 25.042183,92.440407 23.637108,94.495674 
	C23.637108,86.074974 23.637108,77.654282 23.637108,70.308128 
	C38.287552,70.847809 52.956959,71.388199 68.560997,71.982178 
	C74.024338,72.003120 78.553055,71.970474 83.545151,71.947479 
	C98.980057,71.682022 113.951576,71.406914 129.223022,71.126297 
	C128.571671,72.289215 127.848175,73.722488 126.997536,75.075844 
	C122.664536,81.969620 118.244865,88.809441 113.957886,95.731529 
	C108.634651,104.326851 103.411652,112.984268 97.862839,121.840256 
	C97.067764,123.540443 96.555206,125.015228 95.667526,126.518463 
	C91.185501,132.992950 87.078613,139.438950 82.645920,146.003143 
	C77.716064,153.739532 73.112022,161.357712 68.287476,169.212372 
	C62.252747,178.294907 56.387558,187.108032 50.641228,195.997986 
	C46.435635,202.504318 42.386253,209.111633 38.116440,215.914185 
	C39.305305,216.502609 39.842663,216.868378 40.436340,217.048050 
	C63.649757,224.072922 86.726028,231.606186 110.126144,237.943436 
	C133.580811,244.295486 157.438354,249.633652 181.971924,245.855728 
	C191.494049,244.389404 200.689789,240.803589 210.429413,238.131165 
	C212.457535,237.759674 214.090439,237.440308 215.971680,237.072372 
	C215.971680,238.553955 215.971680,239.626694 215.971680,240.699432 
	C215.107773,241.122406 214.056595,241.355530 213.407303,241.996063 
	C196.337540,258.835419 175.316391,262.519012 152.506439,260.498871 
	C121.832687,257.782318 94.076843,245.500809 65.919868,234.425339 
	C53.410950,229.504974 40.680511,225.139832 27.988655,220.699783 
	C25.698889,219.898727 23.107483,219.959915 19.848562,219.512192 
	C20.882399,217.420135 21.620327,215.517426 22.689974,213.824249 
	C36.914391,191.307831 51.201393,168.830917 65.413918,146.307022 
	C66.542030,144.519211 67.234413,142.456436 68.630363,140.096954 
	C73.826912,132.390854 78.522369,125.109261 83.417183,117.582672 
	C91.691368,104.783577 99.766197,92.229462 108.285629,78.984108 
	C99.229904,78.984108 91.153458,78.984108 82.615021,78.871178 
	C77.604408,78.838127 73.055786,78.918007 68.507172,78.997887 
z"/>
<path fill="#050505" opacity="1.000000" stroke="none" 
	d="
M83.081764,71.937828 
	C78.553055,71.970474 74.024338,72.003120 68.998535,71.981598 
	C68.503860,68.430115 68.540443,64.932419 68.502380,61.435543 
	C68.383186,50.484379 63.648537,45.311611 52.791153,44.160709 
	C52.135052,44.091160 51.515499,43.676846 50.918369,42.286995 
	C52.409840,42.198635 53.901237,42.034801 55.392792,42.033394 
	C73.712158,42.016087 92.032341,41.929867 110.350403,42.085636 
	C115.150604,42.126453 120.061584,42.420113 124.722267,43.477043 
	C160.216476,51.526295 162.121918,87.758850 150.242447,108.373817 
	C143.363068,120.311905 133.475800,128.012985 119.203606,128.616928 
	C119.170128,129.233536 119.009705,129.677719 119.156738,129.835617 
	C144.570312,157.130463 169.758362,184.642761 195.600677,211.526108 
	C202.778122,218.992691 211.513290,225.179596 220.231766,230.887466 
	C229.426575,236.907181 239.975479,239.521545 251.156235,238.658890 
	C251.712982,238.615921 252.289124,238.824265 253.129547,238.959625 
	C248.313690,243.274933 236.833878,243.820084 216.376434,240.831680 
	C215.971680,239.626694 215.971680,238.553955 215.971680,237.072372 
	C214.090439,237.440308 212.457535,237.759674 210.078094,238.004974 
	C192.361664,230.649704 179.451050,218.200302 167.349655,204.778641 
	C145.934128,181.026642 124.623276,157.180298 103.218803,133.418289 
	C100.998863,130.953842 98.442772,128.792160 96.042648,126.490005 
	C96.555206,125.015228 97.067764,123.540443 98.277069,121.858871 
	C102.457619,121.409592 105.962669,121.334602 109.421593,120.895905 
	C125.301399,118.881813 135.745453,110.234505 138.667770,96.504471 
	C140.643631,87.221100 140.150818,77.973076 137.129364,68.945427 
	C132.648773,55.558083 123.960541,49.278381 109.929474,49.199192 
	C102.277206,49.156002 94.624420,49.174267 86.972061,49.207516 
	C85.720253,49.212955 84.469406,49.439976 83.081764,49.578159 
	C83.081764,57.307880 83.081764,64.622856 83.081764,71.937828 
z"/>
<path fill="#020101" opacity="1.000000" stroke="none" 
	d="
M68.514893,79.466919 
	C73.055786,78.918007 77.604408,78.838127 82.609833,79.341507 
	C83.117035,92.559067 83.167427,105.193359 83.217819,117.827652 
	C78.522369,125.109261 73.826912,132.390854 68.830139,139.760773 
	C68.526756,119.878052 68.524681,99.906998 68.514893,79.466919 
z"/>
<path fill="#AE9754" opacity="1.000000" stroke="none" 
	d="
M112.795586,27.237894 
	C106.536041,27.797174 102.231575,25.488897 99.941956,20.104753 
	C97.981178,15.493919 98.461243,10.935076 101.660263,6.956037 
	C104.918137,2.903784 111.801407,1.420488 116.727028,3.503033 
	C121.711670,5.610533 124.732040,11.299541 123.929764,17.069719 
	C123.175842,22.492088 119.205856,26.258228 112.795586,27.237894 
z"/>
<path fill="#060606" opacity="1.000000" stroke="none" 
	d="
M45.857574,143.896271 
	C52.335526,143.651871 55.449867,145.528946 55.982540,149.842133 
	C56.497108,154.008698 55.504295,157.533386 51.085232,158.997009 
	C46.532990,160.504745 41.830101,158.356262 40.334469,154.313629 
	C38.780499,150.113312 40.479027,146.695480 45.857574,143.896271 
z"/>
<path fill="#FDFDFD" opacity="1.000000" stroke="none" 
	d="
M95.667526,126.518463 
	C98.442772,128.792160 100.998863,130.953842 103.218803,133.418289 
	C124.623276,157.180298 145.934128,181.026642 167.349655,204.778641 
	C179.451050,218.200302 192.361664,230.649704 209.682892,238.057098 
	C200.689789,240.803589 191.494049,244.389404 181.971924,245.855728 
	C157.438354,249.633652 133.580811,244.295486 110.126144,237.943436 
	C86.726028,231.606186 63.649757,224.072922 40.436340,217.048050 
	C39.842663,216.868378 39.305305,216.502609 38.116440,215.914185 
	C42.386253,209.111633 46.435635,202.504318 50.641228,195.997986 
	C56.387558,187.108032 62.252747,178.294907 68.294708,169.686401 
	C68.520531,174.749557 68.627327,179.578171 68.493385,184.400085 
	C68.239563,193.537613 62.767509,199.153809 53.631462,199.912872 
	C52.703163,199.990005 51.800892,200.380341 50.886539,200.625336 
	C50.947266,200.904419 51.007992,201.183502 51.068718,201.462585 
	C67.471985,201.462585 83.875259,201.462585 100.278526,201.462585 
	C99.839523,200.389557 99.321381,200.011475 98.764206,199.940720 
	C87.274101,198.481552 83.099228,193.797546 83.075424,182.322403 
	C83.050224,170.176575 83.007050,158.030777 82.971725,145.884964 
	C87.078613,139.438950 91.185501,132.992950 95.667526,126.518463 
z"/>
<path fill="#FBFBFA" opacity="1.000000" stroke="none" 
	d="
M83.545151,71.947479 
	C83.081764,64.622856 83.081764,57.307880 83.081764,49.578159 
	C84.469406,49.439976 85.720253,49.212955 86.972061,49.207516 
	C94.624420,49.174267 102.277206,49.156002 109.929474,49.199192 
	C123.960541,49.278381 132.648773,55.558083 137.129364,68.945427 
	C140.150818,77.973076 140.643631,87.221100 138.667770,96.504471 
	C135.745453,110.234505 125.301399,118.881813 109.421593,120.895905 
	C105.962669,121.334602 102.457619,121.409592 98.559586,121.633469 
	C103.411652,112.984268 108.634651,104.326851 113.957886,95.731529 
	C118.244865,88.809441 122.664536,81.969620 126.997536,75.075844 
	C127.848175,73.722488 128.571671,72.289215 129.223022,71.126297 
	C113.951576,71.406914 98.980057,71.682022 83.545151,71.947479 
z"/>
<path fill="#030303" opacity="1.000000" stroke="none" 
	d="
M82.645920,146.003143 
	C83.007050,158.030777 83.050224,170.176575 83.075424,182.322403 
	C83.099228,193.797546 87.274101,198.481552 98.764206,199.940720 
	C99.321381,200.011475 99.839523,200.389557 100.278526,201.462585 
	C83.875259,201.462585 67.471985,201.462585 51.068718,201.462585 
	C51.007992,201.183502 50.947266,200.904419 50.886539,200.625336 
	C51.800892,200.380341 52.703163,199.990005 53.631462,199.912872 
	C62.767509,199.153809 68.239563,193.537613 68.493385,184.400085 
	C68.627327,179.578171 68.520531,174.749557 68.515198,169.449936 
	C73.112022,161.357712 77.716064,153.739532 82.645920,146.003143 
z"/>
<path fill="#FAFAF9" opacity="1.000000" stroke="none" 
	d="
M83.417175,117.582672 
	C83.167427,105.193359 83.117035,92.559067 83.071823,79.454437 
	C91.153458,78.984108 99.229904,78.984108 108.285629,78.984108 
	C99.766197,92.229462 91.691368,104.783577 83.417175,117.582672 
z"/>
</svg>